<?xml version="1.0" encoding="utf-8"?>
<!-- Generator: Adobe Illustrator 22.0.1, SVG Export Plug-In . SVG Version: 6.00 Build 0)  -->
<svg version="1.1" id="Layer_1" xmlns="http://www.w3.org/2000/svg" xmlns:xlink="http://www.w3.org/1999/xlink" x="0px" y="0px"
	 viewBox="0 0 12.2 14.4" style="enable-background:new 0 0 12.2 14.4;" xml:space="preserve">
<style type="text/css">
	.st0{fill:#565D66;}
	.st1{fill:#EAEAEA;}
	.st2{fill-rule:evenodd;clip-rule:evenodd;fill:#565D66;}
	.st3{fill:#103856;}
	.st4{fill-rule:evenodd;clip-rule:evenodd;fill:#103856;}
	.st5{fill-rule:evenodd;clip-rule:evenodd;fill:#991032;}
	.st6{fill-rule:evenodd;clip-rule:evenodd;fill:#F48900;}
	.st7{opacity:0.5;fill-rule:evenodd;clip-rule:evenodd;fill:#6A6A69;}
</style>
<path id="XMLID_14_" class="st0" d="M1.2,32.3c-0.4,0-0.8,0-1.2,0c0-4.8,0-9.6,0-14.4c0.4,0,0.8,0,1.2,0C1.2,22.7,1.2,27.5,1.2,32.3
	z"/>
<rect id="XMLID_13_" x="1.7" y="17.9" class="st1" width="10.5" height="14.4"/>
<rect id="XMLID_12_" x="3" y="20.8" class="st2" width="2.5" height="2.1"/>
<rect id="XMLID_11_" x="3" y="24.2" class="st2" width="2.5" height="2.1"/>
<rect id="XMLID_10_" x="3" y="27.5" class="st2" width="2.5" height="2.1"/>
<path id="XMLID_9_" class="st2" d="M8.7,21.1H6.5c-0.1,0-0.2-0.1-0.2-0.2v0c0-0.1,0.1-0.2,0.2-0.2h2.2c0.1,0,0.2,0.1,0.2,0.2v0
	C8.9,21.1,8.8,21.1,8.7,21.1z"/>
<path id="XMLID_8_" class="st2" d="M10.6,22H6.5c-0.1,0-0.2-0.1-0.2-0.2l0,0c0-0.1,0.1-0.2,0.2-0.2h4.1c0.1,0,0.2,0.1,0.2,0.2l0,0
	C10.8,21.9,10.7,22,10.6,22z"/>
<path id="XMLID_7_" class="st2" d="M10.6,22.9H6.5c-0.1,0-0.2-0.1-0.2-0.2l0,0c0-0.1,0.1-0.2,0.2-0.2h4.1c0.1,0,0.2,0.1,0.2,0.2l0,0
	C10.8,22.8,10.7,22.9,10.6,22.9z"/>
<path id="XMLID_6_" class="st2" d="M8.7,24.6H6.5c-0.1,0-0.2-0.1-0.2-0.2v0c0-0.1,0.1-0.2,0.2-0.2h2.2c0.1,0,0.2,0.1,0.2,0.2v0
	C8.9,24.5,8.8,24.6,8.7,24.6z"/>
<path id="XMLID_5_" class="st2" d="M10.6,25.4H6.5c-0.1,0-0.2-0.1-0.2-0.2l0,0c0-0.1,0.1-0.2,0.2-0.2h4.1c0.1,0,0.2,0.1,0.2,0.2l0,0
	C10.8,25.4,10.7,25.4,10.6,25.4z"/>
<path id="XMLID_4_" class="st2" d="M10.6,26.3H6.5c-0.1,0-0.2-0.1-0.2-0.2l0,0c0-0.1,0.1-0.2,0.2-0.2h4.1c0.1,0,0.2,0.1,0.2,0.2l0,0
	C10.8,26.2,10.7,26.3,10.6,26.3z"/>
<path id="XMLID_3_" class="st2" d="M8.7,27.9H6.5c-0.1,0-0.2-0.1-0.2-0.2l0,0c0-0.1,0.1-0.2,0.2-0.2h2.2c0.1,0,0.2,0.1,0.2,0.2l0,0
	C8.9,27.8,8.8,27.9,8.7,27.9z"/>
<path id="XMLID_2_" class="st2" d="M10.6,28.7H6.5c-0.1,0-0.2-0.1-0.2-0.2l0,0c0-0.1,0.1-0.2,0.2-0.2h4.1c0.1,0,0.2,0.1,0.2,0.2l0,0
	C10.8,28.6,10.7,28.7,10.6,28.7z"/>
<path id="XMLID_1_" class="st2" d="M10.6,29.6H6.5c-0.1,0-0.2-0.1-0.2-0.2l0,0c0-0.1,0.1-0.2,0.2-0.2h4.1c0.1,0,0.2,0.1,0.2,0.2l0,0
	C10.8,29.5,10.7,29.6,10.6,29.6z"/>
<g>
	<path id="XMLID_28_" class="st3" d="M1.2,14.4c-0.4,0-0.8,0-1.2,0c0-4.8,0-9.6,0-14.4c0.4,0,0.8,0,1.2,0C1.2,4.8,1.2,9.6,1.2,14.4z
		"/>
	<g>
		<rect id="XMLID_27_" x="1.7" y="0" class="st1" width="10.5" height="14.4"/>
		<rect id="XMLID_26_" x="3" y="2.9" class="st4" width="2.5" height="2.1"/>
		<rect id="XMLID_25_" x="3" y="6.3" class="st5" width="2.5" height="2.1"/>
		<rect id="XMLID_24_" x="3" y="9.6" class="st6" width="2.5" height="2.1"/>
		<path id="XMLID_23_" class="st7" d="M8.7,3.2H6.5C6.4,3.2,6.3,3.1,6.3,3v0c0-0.1,0.1-0.2,0.2-0.2h2.2c0.1,0,0.2,0.1,0.2,0.2v0
			C8.9,3.1,8.8,3.2,8.7,3.2z"/>
		<path id="XMLID_22_" class="st7" d="M10.6,4.1H6.5C6.4,4.1,6.3,4,6.3,3.9v0c0-0.1,0.1-0.2,0.2-0.2h4.1c0.1,0,0.2,0.1,0.2,0.2v0
			C10.8,4,10.7,4.1,10.6,4.1z"/>
		<path id="XMLID_21_" class="st7" d="M10.6,4.9H6.5c-0.1,0-0.2-0.1-0.2-0.2v0c0-0.1,0.1-0.2,0.2-0.2h4.1c0.1,0,0.2,0.1,0.2,0.2v0
			C10.8,4.9,10.7,4.9,10.6,4.9z"/>
		<path id="XMLID_20_" class="st7" d="M8.7,6.6H6.5c-0.1,0-0.2-0.1-0.2-0.2v0c0-0.1,0.1-0.2,0.2-0.2h2.2c0.1,0,0.2,0.1,0.2,0.2v0
			C8.9,6.6,8.8,6.6,8.7,6.6z"/>
		<path id="XMLID_19_" class="st7" d="M10.6,7.5H6.5c-0.1,0-0.2-0.1-0.2-0.2v0c0-0.1,0.1-0.2,0.2-0.2h4.1c0.1,0,0.2,0.1,0.2,0.2v0
			C10.8,7.4,10.7,7.5,10.6,7.5z"/>
		<path id="XMLID_18_" class="st7" d="M10.6,8.4H6.5c-0.1,0-0.2-0.1-0.2-0.2l0,0C6.3,8.1,6.4,8,6.5,8h4.1c0.1,0,0.2,0.1,0.2,0.2l0,0
			C10.8,8.3,10.7,8.4,10.6,8.4z"/>
		<path id="XMLID_17_" class="st7" d="M8.7,9.9H6.5c-0.1,0-0.2-0.1-0.2-0.2l0,0c0-0.1,0.1-0.2,0.2-0.2h2.2c0.1,0,0.2,0.1,0.2,0.2
			l0,0C8.9,9.8,8.8,9.9,8.7,9.9z"/>
		<path id="XMLID_16_" class="st7" d="M10.6,10.8H6.5c-0.1,0-0.2-0.1-0.2-0.2l0,0c0-0.1,0.1-0.2,0.2-0.2h4.1c0.1,0,0.2,0.1,0.2,0.2
			l0,0C10.8,10.7,10.7,10.8,10.6,10.8z"/>
		<path id="XMLID_15_" class="st7" d="M10.6,11.6H6.5c-0.1,0-0.2-0.1-0.2-0.2v0c0-0.1,0.1-0.2,0.2-0.2h4.1c0.1,0,0.2,0.1,0.2,0.2v0
			C10.8,11.6,10.7,11.6,10.6,11.6z"/>
	</g>
</g>
</svg>
